<svg id="visual" viewBox="0 0 960 540" width="960" height="540" xmlns="http://www.w3.org/2000/svg" xmlns:xlink="http://www.w3.org/1999/xlink" version="1.1"><rect x="0" y="0" width="960" height="540" fill="#001220"></rect><defs><linearGradient id="grad1_0" x1="43.8%" y1="0%" x2="100%" y2="100%"><stop offset="14.444444444444446%" stop-color="#001220" stop-opacity="1"></stop><stop offset="85.55555555555554%" stop-color="#001220" stop-opacity="1"></stop></linearGradient></defs><defs><linearGradient id="grad2_0" x1="0%" y1="0%" x2="56.3%" y2="100%"><stop offset="14.444444444444446%" stop-color="#001220" stop-opacity="1"></stop><stop offset="85.55555555555554%" stop-color="#001220" stop-opacity="1"></stop></linearGradient></defs><g transform="translate(960, 0)"><path d="M0 270C-31.5 255.1 -62.9 240.1 -94.1 227.3C-125.3 214.4 -156.3 203.6 -183.8 183.8C-211.4 164.1 -235.6 135.5 -249.4 103.3C-263.2 71.2 -266.6 35.6 -270 0L0 0Z" fill="#FCAF3C"></path></g><g transform="translate(0, 540)"><path d="M0 -270C29.3 -246.2 58.6 -222.4 85.3 -206C112.1 -189.6 136.4 -180.6 166.2 -166.2C195.9 -151.7 231.2 -131.9 249.4 -103.3C267.7 -74.7 268.8 -37.4 270 0L0 0Z" fill="#FCAF3C"></path></g></svg>